<?xml version="1.0" standalone="no"?><!DOCTYPE svg PUBLIC "-//W3C//DTD SVG 1.1//EN" "http://www.w3.org/Graphics/SVG/1.1/DTD/svg11.dtd"><svg class="icon" width="32px" height="32.00px" viewBox="0 0 1024 1024" version="1.1" xmlns="http://www.w3.org/2000/svg"><path d="M390.4 152.3H149.9c-26.5 0-48.1 21.5-48.1 48.1v240.4c0 26.6 21.5 48.1 48.1 48.1h240.5c26.5 0 48.1-21.5 48.1-48.1V200.4c0-26.6-21.5-48.1-48.1-48.1zM907 286.6l-170-170c-18.8-18.8-49.2-18.8-68 0l-170 170c-18.8 18.8-18.8 49.2 0 68l170 170c18.8 18.8 49.2 18.8 68 0l170-170c18.8-18.8 18.8-49.2 0-68zM390.4 585.1H149.9c-26.5 0-48.1 21.5-48.1 48.1v240.4c0 26.6 21.5 48.1 48.1 48.1h240.5c26.5 0 48.1-21.5 48.1-48.1V633.2c0-26.6-21.5-48.1-48.1-48.1z m432.8 0H582.7c-26.5 0-48.1 21.5-48.1 48.1v240.4c0 26.6 21.5 48.1 48.1 48.1h240.4c26.6 0 48.1-21.5 48.1-48.1V633.2c0.1-26.6-21.4-48.1-48-48.1z m0 0" /></svg>