<?xml version="1.0" standalone="no"?><!DOCTYPE svg PUBLIC "-//W3C//DTD SVG 1.1//EN" "http://www.w3.org/Graphics/SVG/1.1/DTD/svg11.dtd"><svg class="icon" width="32px" height="32.00px" viewBox="0 0 1024 1024" version="1.1" xmlns="http://www.w3.org/2000/svg"><path d="M736 198.6c15.2 13.6 27.4 25 36.4 34.3 9 9.3 15.9 17.3 20.8 23.7 4.8 6.5 7.8 12 8.9 16.6 1.1 4.6 1.7 8.5 1.7 11.9v13.5H679.2c-6.2 0-11.5-2.1-15.7-6.3-4.2-4.2-7.8-9.2-10.6-14.8-2.8-5.7-5-11.5-6.3-17.4-1.4-5.9-2.1-10.9-2.1-14.8V141h1.7c5.1 0 9.9 0.5 14.4 1.7 4.6 1.1 10 3.8 16.6 8.1 6.5 4.2 14.4 10.1 23.7 17.8 9.3 7.6 21 17.6 35.1 30z m-144.9 48.3c0 10.8 1.7 22.3 5.1 34.8 3.4 12.4 8.8 23.9 16.1 34.3 7.3 10.4 16.7 19.2 27.9 26.3 11.3 7 24.6 10.6 39.8 10.6h123.7v424.5c0 16.3-3.2 31-9.7 44.1-6.5 13-15.1 24.1-25.9 33.5-10.8 9.3-22.6 16.6-35.6 21.6-13 5.1-25.7 7.7-38.2 7.7h-365c-10.8 0-22.4-3.1-35.2-9.3-12.7-6.2-24.6-14.4-35.6-24.6-11.1-10.1-20.2-21.9-27.5-35.2-7.4-13.3-11.1-27-11.1-41.2V250.3c0-11.9 2.8-24.3 8.5-37.2 5.7-13 13.1-24.7 22.4-35.2 9.3-10.4 20-19.2 31.8-26.3 11.9-7 24.3-10.5 37.2-10.5H591v105.8h0.1z m-67.7 382.2c6.8-6.8 10.4-15.8 11-27.1 0.5-11.3-2.6-20.1-9.3-26.3l-139-139.8c-6.8-6.8-15.1-10.1-25-10.1s-18.2 3.4-25 10.1c-6.8 7.3-10.1 15.9-10.1 25.9 0 9.9 3.4 18.2 10.1 25l113.6 115.1-113.6 114.4c-6.8 6.8-10.1 15.1-10.1 25s3.4 18.5 10.1 25.9c6.8 6.8 15.1 10.1 25 10.1s18.2-3.4 25-10.1l137.3-138.1z m173.6 94H537.8v53.4H697v-53.4z m0 0" /></svg>