<?xml version="1.0" standalone="no"?><!DOCTYPE svg PUBLIC "-//W3C//DTD SVG 1.1//EN" "http://www.w3.org/Graphics/SVG/1.1/DTD/svg11.dtd"><svg class="icon" width="32px" height="32.00px" viewBox="0 0 1024 1024" version="1.1" xmlns="http://www.w3.org/2000/svg"><path d="M724.9 810.8c15.4 0 27.8 13 27.8 29.1S740.2 869 724.9 869H233.8c-15.4 0-27.8-13-27.8-29.1s12.4-29.1 27.8-29.1h491.1z m-492.4-39.4l66.7-187 108.7 114.1-175.4 72.9z m197.7-94.3L320.6 562l298.1-310.3 109.7 115-298.2 310.4z m318.5-334.3l-109.6-115 54.9-57.5c18.2-19 47.6-19 65.8 0l43.8 46c18.2 19 18.2 50 0 69l-54.9 57.5z" /></svg>