<?xml version="1.0" standalone="no"?><!DOCTYPE svg PUBLIC "-//W3C//DTD SVG 1.1//EN" "http://www.w3.org/Graphics/SVG/1.1/DTD/svg11.dtd"><svg class="icon" width="32px" height="32.00px" viewBox="0 0 1024 1024" version="1.1" xmlns="http://www.w3.org/2000/svg"><path d="M511.3 868.8c-95.2 0-184.7-37.1-252-104.4-67.3-67.3-104.4-156.8-104.4-252 0-95.2 37.1-184.7 104.4-252 67.3-67.3 156.8-104.4 252-104.4 95.2 0 184.7 37.1 252 104.4 67.3 67.3 104.4 156.8 104.4 252 0 95.2-37.1 184.7-104.4 252-67.3 67.3-156.8 104.4-252 104.4z m0-671.9c-84.3 0-163.5 32.8-223.1 92.4-59.6 59.6-92.4 138.8-92.4 223.1 0 84.3 32.8 163.5 92.4 223.1 59.6 59.6 138.8 92.4 223.1 92.4 84.3 0 163.5-32.8 223.1-92.4 59.6-59.6 92.4-138.8 92.4-223.1 0-84.3-32.8-163.5-92.4-223.1-59.6-59.6-138.8-92.4-223.1-92.4z m0 0"  /><path d="M392.6 650.2c-5.2 0-10.5-2-14.4-6-8-8-8-20.9 0-28.9L615.5 378c8-8 20.9-8 28.9 0s8 20.9 0 28.9L407.1 644.3c-4 4-9.2 5.9-14.5 5.9z m0 0"  /><path d="M629.9 650.2c-5.2 0-10.5-2-14.5-6L378.2 407c-8-8-8-20.9 0-28.9s20.9-8 28.9 0l237.3 237.3c8 8 8 20.9 0 28.9-4 4-9.2 5.9-14.5 5.9z m0 0"  /></svg>