<?xml version="1.0" standalone="no"?><!DOCTYPE svg PUBLIC "-//W3C//DTD SVG 1.1//EN" "http://www.w3.org/Graphics/SVG/1.1/DTD/svg11.dtd"><svg class="icon" width="16px" height="16.00px" viewBox="0 0 1024 1024" version="1.1" xmlns="http://www.w3.org/2000/svg"><path d="M799.296 737.024H73.344A41.344 41.344 0 0 1 32 695.68V167.36c0-22.848 18.496-41.344 41.344-41.344H276.48c10.24 0 20.16 3.84 27.84 10.752l61.44 55.872h433.536c22.784 0 41.344 18.496 41.344 41.344v461.76a41.344 41.344 0 0 1-41.344 41.28zM114.688 654.336h643.264V275.264H349.76a41.6 41.6 0 0 1-27.84-10.752l-61.44-55.808H114.688v445.632z" fill="#9b9b9b" /><path d="M950.656 897.984H258.56a41.344 41.344 0 1 1 0-82.688h650.752V372.288a41.344 41.344 0 0 1 82.688 0v484.416a41.344 41.344 0 0 1-41.344 41.28z" fill="#9b9b9b" /></svg>