<?xml version="1.0" standalone="no"?><!DOCTYPE svg PUBLIC "-//W3C//DTD SVG 1.1//EN" "http://www.w3.org/Graphics/SVG/1.1/DTD/svg11.dtd"><svg class="icon" width="32px" height="32.00px" viewBox="0 0 1024 1024" version="1.1" xmlns="http://www.w3.org/2000/svg"><path d="M776.4 364.4c-16.2 0-30.4 13.1-30.4 29.3v438.1c0 16.2-13.4 28.9-29.5 28.9H306.9c-16.2 0-29.7-12.8-29.7-28.9V392.4c0-16.2-11.8-29.3-28-29.3s-28 13.1-28 29.3v439.3c0 48.4 37.3 90.5 85.7 90.5h409.7c48.4 0 90.3-42.2 90.3-90.5V393.6c-0.1-16.1-14.3-29.2-30.5-29.2z"  /><path d="M450.8 714.7V392.8c0-16.2-11.8-29.3-28-29.3s-28 13-28 29.3v321.8c0 16.2 11.8 29.3 28 29.3 16.2 0.1 28-13.1 28-29.2zM628.4 714.7V392.8c0-16.2-14.2-29.3-30.4-29.3s-30.4 13-30.4 29.3v321.8c0 16.2 14.2 29.3 30.4 29.3 16.2 0.1 30.4-13.1 30.4-29.2zM891.9 247.8H746V188c0-48.4-39.4-85-87.4-85H365.3c-48.3 0-88.1 36.6-88.1 85v59.8H131.3c-16.2 0-29.3 11.8-29.3 28s13 28 29.3 28H892c16.2 0 29.3-11.8 29.3-28s-13.1-28-29.4-28z m-206.7 0H334V188c0-16.2 15.2-29 31.3-29h293.3c16 0 26.6 12.6 26.6 29v59.8z"  /></svg>