<?xml version="1.0" standalone="no"?><!DOCTYPE svg PUBLIC "-//W3C//DTD SVG 1.1//EN" "http://www.w3.org/Graphics/SVG/1.1/DTD/svg11.dtd"><svg class="icon" width="32px" height="32.00px" viewBox="0 0 1024 1024" version="1.1" xmlns="http://www.w3.org/2000/svg"><path d="M360.5 749.5H231.1c-23.8 0-43.1-19.3-43.1-43.1V232.1c0-23.8 19.3-43.1 43.1-43.1H576c23.8 0 43.1 19.3 43.1 43.1H403.6c-23.8 0-43.1 19.3-43.1 43.1v43.1h-64.7c-11.9 0-21.6 9.7-21.6 21.6 0 11.9 9.7 21.6 21.6 21.6h64.7v86.2h-64.7c-11.9 0-21.6 9.7-21.6 21.6 0 11.9 9.7 21.6 21.6 21.6h64.7V577h-64.7c-11.9 0-21.6 9.7-21.6 21.6s9.7 21.6 21.6 21.6h64.7v129.3z m0 0"  /><path d="M403.6 318.4c0-23.8 19.3-43.1 43.1-43.1h344.9c23.8 0 43.1 19.3 43.1 43.1v474.2c0 23.8-19.3 43.1-43.1 43.1H446.7c-23.8 0-43.1-19.3-43.1-43.1V318.4z m344.9 237.1c0-11.9-9.6-21.6-21.6-21.6H511.4c-11.9 0-21.6 9.6-21.6 21.6 0 11.9 9.7 21.6 21.6 21.6H727c11.9-0.1 21.5-9.7 21.5-21.6z m0-129.4c0-11.9-9.6-21.6-21.6-21.6H511.4c-11.9 0-21.6 9.7-21.6 21.6 0 11.9 9.7 21.6 21.6 21.6H727c11.9 0 21.5-9.7 21.5-21.6z m-86.2 258.7c0-11.9-9.7-21.6-21.6-21.6H511.4c-11.9 0-21.6 9.6-21.6 21.6 0 11.9 9.7 21.6 21.6 21.6h129.3c11.9 0 21.6-9.7 21.6-21.6z m0 0"  /></svg>