<?xml version="1.0" standalone="no"?><!DOCTYPE svg PUBLIC "-//W3C//DTD SVG 1.1//EN" "http://www.w3.org/Graphics/SVG/1.1/DTD/svg11.dtd"><svg class="icon" width="32px" height="32.00px" viewBox="0 0 1024 1024" version="1.1" xmlns="http://www.w3.org/2000/svg"><path d="M511.5 838C691.3 838 837 692.3 837 512.5S691.3 187 511.5 187 186 332.7 186 512.5 331.7 838 511.5 838z m0 31C314.6 869 155 709.4 155 512.5S314.6 156 511.5 156 868 315.6 868 512.5 708.4 869 511.5 869z"  /><path d="M318.3 445.5l181.8 197.3 11.4 12.4 11.4-12.4 181.8-197.3-22.8-21-181.8 197.3h22.8L341.1 424.5l-22.8 21z"  /></svg>