<?xml version="1.0" standalone="no"?><!DOCTYPE svg PUBLIC "-//W3C//DTD SVG 1.1//EN" "http://www.w3.org/Graphics/SVG/1.1/DTD/svg11.dtd"><svg class="icon" width="32px" height="32.00px" viewBox="0 0 1024 1024" version="1.1" xmlns="http://www.w3.org/2000/svg"><path d="M860.9 200.4l48.7 48.7c6.6 6.6 11.5 4.1 11.5-4.9V118.9c0-9-7.4-16.4-16.4-16.4H779c-9 0-11.1 5.3-4.9 11.5l49.6 49.6-216.3 197c-6.6 6.1-17.2 6.1-24.2-0.4L439.4 223.8c-6.6-6.1-17.6-6.6-24.2-0.4l-224 195.3V490l222.4-195.4c7-6.1 17.6-5.7 24.2 0.4l145.4 137.6c6.6 6.1 17.2 6.1 24.2 0l253.5-232.2z m0 0"  /><path d="M153.1 866.8V127.5c0-13.9-11.5-25-25.4-25-14.3 0-25.8 11.1-25.8 25v794.2h793.4c13.9 0 25.8-11.1 25.8-25 0-13.5-11.5-25-25.8-25l-742.2-4.9z m0 0"  /><path d="M322.7 544.9c0-9-7.4-16.4-16.4-16.4H208c-9 0-16.4 7.4-16.4 16.4v290h131.1v-290zM501.6 381c0-9-7.4-16.4-16.4-16.4H387c-9 0-16.4 7.4-16.4 16.4v453.8h131.1V381z m179.5 114.7c0-9-7.4-16.4-16.4-16.4h-98.3c-9 0-16.4 7.4-16.4 16.4v339.1h131.1V495.7zM860 353.6c0-9-7.4-16.4-16.4-16.4h-98.3c-9 0-16.4 7.4-16.4 16.4v481.3H860V353.6z m0 0"  /></svg>