<?xml version="1.0" standalone="no"?><!DOCTYPE svg PUBLIC "-//W3C//DTD SVG 1.1//EN" "http://www.w3.org/Graphics/SVG/1.1/DTD/svg11.dtd"><svg class="icon" width="32px" height="32.00px" viewBox="0 0 1024 1024" version="1.1" xmlns="http://www.w3.org/2000/svg"><path d="M661.1 729.3c-45.5 32.3-98.7 48.4-153.1 47.7-7.2-0.1-14.3-0.5-21.4-1.1-2.9-0.3-5.8-0.8-8.7-1.1-5.6-0.8-11.1-1.5-16.5-2.6-3.4-0.6-6.6-1.5-9.9-2.3-5.3-1.3-10.6-2.5-15.8-4.1-2.5-0.8-4.9-1.7-7.4-2.5-6-2-11.9-4.1-17.7-6.6-1.3-0.5-2.6-1.2-3.9-1.8-6.8-3-13.5-6.2-19.9-9.7-0.3-0.2-0.6-0.3-0.9-0.5-21.9-12.2-41.9-27.4-59.5-45.1-0.3-0.3-0.6-0.6-0.8-0.9-5.5-5.5-10.7-11.3-15.6-17.4-1-1.3-2-2.7-3.1-4-35.8-45.3-57.3-102.6-57.3-164.9h60.6c1.6 0 3.1-0.8 3.9-2.3 0.8-1.5 0.7-3.2-0.2-4.5L212 350.9c-0.8-1.2-2.1-2-3.7-2-1.5 0-2.9 0.8-3.7 2L102.7 505.7c-0.9 1.3-1 3-0.2 4.5s2.3 2.3 3.9 2.3H167c0 73.3 22.6 141.2 60.9 197.4 0.5 0.8 0.8 1.6 1.3 2.4 4 5.8 8.4 11 12.7 16.5 1.6 2.1 3.1 4.2 4.7 6.2 6.3 7.7 12.9 14.9 19.8 22 0.7 0.7 1.3 1.4 1.9 2 23 23.3 49 43 77.3 58.7 0.7 0.5 1.4 0.9 2.2 1.3 8.1 4.4 16.5 8.4 25.1 12.2 2.1 0.9 4.2 1.9 6.3 2.9 7.3 3 14.7 5.7 22.3 8.3 3.6 1.2 7.1 2.5 10.7 3.6 6.6 2 13.3 3.6 20.1 5.3 4.5 1.1 9 2.2 13.5 3.1 1.9 0.4 3.7 1 5.6 1.3 6.4 1.1 12.8 1.8 19.2 2.6 2.3 0.3 4.6 0.7 6.9 0.9 11.5 1.1 22.9 1.9 34.4 1.9 70 0 138.2-21.7 196.7-63.2 18.7-13.3 23.2-39.3 10.1-58.2-13.2-19.1-39-23.6-57.6-10.4m194.1-216.8c0-73.1-22.5-140.9-60.6-196.9-0.6-1-1-1.9-1.6-2.8-4.8-6.9-9.9-13.2-15.1-19.7l-1.8-2.4c-34.9-42.9-78.8-76-128.4-97.7-1.4-0.6-2.7-1.3-4.1-1.9-7.9-3.3-16.1-6.2-24.2-9-3-1-5.9-2.1-8.9-3-7.1-2.2-14.3-4-21.6-5.7-4-0.9-8-2-12.1-2.8-2-0.4-3.9-1-5.9-1.4-5.4-1-10.9-1.4-16.3-2.1-3.8-0.5-7.5-1.1-11.3-1.5-9.1-0.9-18.2-1.2-27.3-1.4-1.6 0-3.3-0.3-4.9-0.3-0.3 0-0.6 0.1-0.9 0.1-69.8 0.1-137.9 21.4-196.4 62.9-18.7 13.2-23.2 39.3-10.2 58.2 13.1 18.9 38.9 23.5 57.5 10.3 45.1-32 97.8-48.2 151.8-47.7 7.8 0.1 15.4 0.4 23 1.2 2.4 0.3 4.6 0.6 7 0.9 6.2 0.8 12.4 1.7 18.5 2.9 2.7 0.5 5.4 1.2 7.9 1.8 6 1.4 11.9 2.8 17.8 4.6 1.8 0.6 3.6 1.3 5.5 1.9 6.7 2.2 13.2 4.6 19.6 7.3 0.6 0.3 1.3 0.6 2 0.9 38.5 16.8 72.2 42.6 98.6 74.8 0.2 0.2 0.3 0.5 0.5 0.6 37.1 45.7 59.4 104.1 59.4 167.7h-60.6c-1.6 0-3.1 0.8-3.9 2.3-0.8 1.5-0.7 3.2 0.2 4.5l101.9 154.8c0.8 1.2 2.1 2 3.7 2 1.5 0 2.9-0.8 3.7-2l101.9-154.8c0.9-1.3 1-3 0.2-4.5s-2.3-2.3-3.9-2.3l-60.7 0.2z m0 0" /></svg>