<?xml version="1.0" standalone="no"?><!DOCTYPE svg PUBLIC "-//W3C//DTD SVG 1.1//EN" "http://www.w3.org/Graphics/SVG/1.1/DTD/svg11.dtd"><svg class="icon" width="32px" height="32.00px" viewBox="0 0 1024 1024" version="1.1" xmlns="http://www.w3.org/2000/svg"><path d="M880.689548 868.772636c-196.49321 202.428386-519.560186 207.531614-721.6693 11.423167-202.108091-196.11561-206.509331-519.246031-10.015097-721.67237C345.500407-43.902906 668.631852-49.073672 870.676497 147.038868l-59.267848 61.115939C642.984728 44.708248 373.762077 48.983621 209.996247 217.663368c-163.767877 168.678724-160.003134 437.901375 8.42181 601.412403 168.359452 163.447583 437.644525 159.175279 601.345887-9.504468l60.925604 59.201333z m0.070609-0.058328c-16.397459 16.836457-43.324738 17.285688-60.165288 0.887206-16.780175-16.327874-17.160845-43.25413-0.831948-60.095703 16.396435-16.906042 43.321668-17.349133 60.163241-1.022283 16.842597 16.399505 17.162892 43.38409 0.833995 60.23078z m143.218865-513.569752l-331.167468-24.816199L989.274616 24.867364l34.704406 330.277192z"  /></svg>