<?xml version="1.0" standalone="no"?><!DOCTYPE svg PUBLIC "-//W3C//DTD SVG 1.1//EN" "http://www.w3.org/Graphics/SVG/1.1/DTD/svg11.dtd"><svg class="icon" width="32px" height="32.00px" viewBox="0 0 1024 1024" version="1.1" xmlns="http://www.w3.org/2000/svg"><path d="M586.3 456.9c29.8-12.6 61.2-19 93.8-19 3.2 0 6.4 0.1 9.6 0.1 15.2-38.6 19.2-84.2 11.5-128.5C683.5 207.9 587.6 140 486.8 157.9 386.1 175.8 301.1 254.1 319 355.7c3.8 21.9 14.4 56.2 27 81L163.1 700.5c-6.7 9.6-10.6 27.1-8.5 39l8 45.2c-7.5-43.5 2.1 15.7 8 15.5l60.3 0.8c11.6-2.1 26.1-11.9 32.6-21.8l72.3-113.1 0.7-0.7 63.2 5L484 538c0.3 0 0.6 0.1 0.8 0.1 7.5-10.3 15.8-20.1 25-29.4 22-22.3 47.9-39.6 76.5-51.8M202.7 728.3l-8.9 3.8 1-9.8L369.9 468l10.5 9.8-177.7 250.5m266.2-468c27.7-39.8 82.2-49.8 121.6-21.7 39.6 28.1 49.2 83.2 21.5 123-27.7 39.9-55.9 11.7-95.5-16.2-39.4-28-75.3-45.1-47.6-85.1m0 0z"  /><path d="M677.8 486.9c-106.1 0-192.1 86-192.1 192.1s86 192.1 192.1 192.1 192.1-86 192.1-192.1-86-192.1-192.1-192.1m111 270.9c0 28.7-54.9 35.2-106.5 35.2s-107.2-6.6-107.2-35.2v-8c0-21.1 38-42.5 70.3-54.1 2.4-0.8 13.6-7 7.3-23.3-16.1-16.4-28.1-42.9-28.1-69.1 0-40 26.4-61 57.5-61 30.9 0 57.6 21 57.6 61 0 26-12.2 52.4-28.1 68.9h0.1c-6.1 18.6 3.6 23.1 5.2 23.5 34 11.2 72.1 32.4 72.1 54.1l-0.2 8m0 0z"  /></svg>