<?xml version="1.0" standalone="no"?><!DOCTYPE svg PUBLIC "-//W3C//DTD SVG 1.1//EN" "http://www.w3.org/Graphics/SVG/1.1/DTD/svg11.dtd"><svg class="icon" width="32px" height="32.00px" viewBox="0 0 1024 1024" version="1.1" xmlns="http://www.w3.org/2000/svg"><path d="M511.3 160C316.8 160 159 317.8 159 512.3c0 194.6 157.8 352.3 352.3 352.3s352.3-157.7 352.3-352.3C863.7 317.8 705.8 160 511.3 160z m0 663.2c-171.7 0-310.9-139.2-310.9-310.9s139.2-310.8 310.9-310.8c171.8 0 310.9 139.2 310.9 310.9 0 171.6-139.2 310.8-310.9 310.8z m0 0"  /><path d="M663.8 391.6L474.6 580.9 370.4 476.7c-9.5-9.5-24.9-9.5-34.4 0s-9.5 24.9 0 34.4l121.4 121.4c9.5 9.5 24.9 9.5 34.4 0L698.2 426c9.5-9.5 9.5-24.9 0-34.4s-24.9-9.5-34.4 0z m0 0"  /></svg>