<?xml version="1.0" standalone="no"?><!DOCTYPE svg PUBLIC "-//W3C//DTD SVG 1.1//EN" "http://www.w3.org/Graphics/SVG/1.1/DTD/svg11.dtd"><svg class="icon" width="32px" height="32.00px" viewBox="0 0 1024 1024" version="1.1" xmlns="http://www.w3.org/2000/svg"><path d="M511.7 869C315 869 154.9 709 154.9 512.2c0-196.7 160.1-356.8 356.8-356.8 196.8 0 356.8 160.1 356.8 356.8S708.5 869 511.7 869z m0-662.4c-168.5 0-305.6 137.1-305.6 305.6 0 168.5 137.1 305.6 305.6 305.6 168.5 0 305.6-137.1 305.6-305.6 0-168.5-137.1-305.6-305.6-305.6z m0 0"  /><path d="M473.3 345.8c0 21.2 17.2 38.4 38.4 38.4s38.4-17.2 38.4-38.4-17.2-38.4-38.4-38.4-38.4 17.2-38.4 38.4z m0 0M511.7 717c-14.1 0-25.6-11.4-25.6-25.6V461c0-14.1 11.5-25.6 25.6-25.6 14.1 0 25.6 11.5 25.6 25.6v230.4c0 14.1-11.5 25.6-25.6 25.6z m0 0"  /></svg>