<?xml version="1.0" standalone="no"?><!DOCTYPE svg PUBLIC "-//W3C//DTD SVG 1.1//EN" "http://www.w3.org/Graphics/SVG/1.1/DTD/svg11.dtd"><svg class="icon" width="16px" height="16.00px" viewBox="0 0 1024 1024" version="1.1" xmlns="http://www.w3.org/2000/svg"><path d="M762.311111 944.378311l-523.377778 0c-50.267022 0-91.022222-40.7552-91.022222-91.022222l0-659.911111c0-50.267022 40.7552-91.022222 91.022222-91.022222l523.377778 0c50.267022 0 91.022222 40.7552 91.022222 91.022222l0 659.911111C853.333333 903.623111 812.578133 944.378311 762.311111 944.378311zM659.911111 238.956089c-31.425422 0-56.888889 25.463467-56.888889 56.888889 0 18.523022 9.0112 34.838756 22.7328 45.215289 0 0.091022 0.022756 0.182044 0.022756 0.295822 0 69.131378-56.046933 125.155556-125.155556 125.155556s-125.155556-56.024178-125.155556-125.155556c0-0.113778 0.045511-0.182044 0.045511-0.295822 13.7216-10.376533 22.710044-26.692267 22.710044-45.215289 0-31.425422-25.463467-56.888889-56.888889-56.888889s-56.888889 25.463467-56.888889 56.888889c0 18.545778 9.0112 34.861511 22.755556 45.2608 0 0.091022 0 0.159289 0 0.250311 0 106.814578 86.607644 193.399467 193.422222 193.399467s193.422222-86.584889 193.422222-193.399467c0-0.091022 0-0.159289 0-0.250311 13.744356-10.399289 22.755556-26.715022 22.755556-45.2608C716.8 264.419556 691.336533 238.956089 659.911111 238.956089z" /></svg>