<?xml version="1.0" standalone="no"?><!DOCTYPE svg PUBLIC "-//W3C//DTD SVG 1.1//EN" "http://www.w3.org/Graphics/SVG/1.1/DTD/svg11.dtd"><svg class="icon" width="32px" height="32.00px" viewBox="0 0 1024 1024" version="1.1" xmlns="http://www.w3.org/2000/svg"><path d="M839.1 920.6H182.9c-44 0-79.4-17.4-97-47.6-17.7-30.3-15.5-69.8 5.9-108.5l331.1-597.2c21.6-38.9 53.6-61.2 87.9-61.2 34.3 0 66.3 22.3 87.9 61.2l331.5 597.3c21.4 38.7 23.6 78.2 5.9 108.5-17.6 30.1-53 47.5-97 47.5zM510.8 168.7c-10.9 0-23.4 10.9-33.5 29.1L146.2 795c-10.4 18.7-12.8 35.6-6.6 46.2 6.2 10.6 22 16.7 43.3 16.7h656.2c21.3 0 37.1-6.1 43.3-16.7 6.2-10.6 3.8-27.4-6.6-46.2L544.3 197.8c-10.1-18.2-22.6-29.1-33.5-29.1z m0.2 469.1c-17.2 0-31.1-14-31.1-31.3V324.3c0-17.3 14-31.3 31.1-31.3 17.2 0 31.1 14 31.1 31.3v282.1c0 17.4-13.9 31.4-31.1 31.4z m-0.2 153.2c26.8 0 48.5-21.9 48.5-48.9s-21.7-48.9-48.5-48.9-48.5 21.9-48.5 48.9c-0.1 27 21.7 48.9 48.5 48.9z" /></svg>